<svg width="64" height="64" viewBox="0 0 64 64" fill="none" xmlns="http://www.w3.org/2000/svg">
<g clip-path="url(#clip0_106_301)">
<path d="M56.1687 9.30157L7.83281 9.30005C7.1618 9.30005 6.63581 9.6284 6.32269 10.0934L7.2921 12.1288L27.8728 28.8052L57.7546 10.2198C57.4472 9.68456 56.8745 9.30157 56.1687 9.30157Z" fill="#FF7E92"/>
<path d="M57.7545 10.2198L27.7518 27.4424L6.32269 10.0934C5.83092 10.8227 5.86393 11.8877 6.68242 12.5501L26.1916 28.3379L31.9328 54.6958C32.49 54.6581 33.0357 54.3695 33.3727 53.7923L57.7477 12.0524C58.1037 11.4429 58.0619 10.7552 57.7545 10.2198Z" fill="#FF5F7A"/>
<path d="M26.1915 28.338L29.986 53.1466C30.1454 54.1891 31.0536 54.7548 31.9327 54.6958L27.7518 27.4423L26.1915 28.338Z" fill="#FB4455"/>
</g>
<defs>
<clipPath id="clip0_106_301">
<rect width="52" height="52" fill="white" transform="translate(6 6)"/>
</clipPath>
</defs>
</svg>
